TITLE ""
FILE "P1Q_t_0278-0287.mp3" MP3
  TRACK 01 AUDIO
    TITLE "P1Q_t_0278-0287_01"
    INDEX 01 00:00:00
  TRACK 02 AUDIO
    TITLE "P1Q_t_0278-0287_02"
    INDEX 01 00:01:22
  TRACK 03 AUDIO
    TITLE "P1Q_t_0278-0287_03"
    INDEX 01 00:01:39
  TRACK 04 AUDIO
    TITLE "P1Q_t_0278-0287_04"
    INDEX 01 00:04:65
  TRACK 05 AUDIO
    TITLE "P1Q_t_0278-0287_05"
    INDEX 01 00:05:11
  TRACK 06 AUDIO
    TITLE "P1Q_t_0278-0287_06"
    INDEX 01 00:10:09
  TRACK 07 AUDIO
    TITLE "P1Q_t_0278-0287_07"
    INDEX 01 00:10:54
  TRACK 08 AUDIO
    TITLE "P1Q_t_0278-0287_08"
    INDEX 01 00:11:63
  TRACK 09 AUDIO
    TITLE "P1Q_t_0278-0287_09"
    INDEX 01 00:12:12
  TRACK 10 AUDIO
    TITLE "P1Q_t_0278-0287_10"
    INDEX 01 00:14:73
  TRACK 11 AUDIO
    TITLE "P1Q_t_0278-0287_11"
    INDEX 01 00:15:22
  TRACK 12 AUDIO
    TITLE "P1Q_t_0278-0287_12"
    INDEX 01 00:20:46
  TRACK 13 AUDIO
    TITLE "P1Q_t_0278-0287_13"
    INDEX 01 00:21:18
  TRACK 14 AUDIO
    TITLE "P1Q_t_0278-0287_14"
    INDEX 01 00:22:33
  TRACK 15 AUDIO
    TITLE "P1Q_t_0278-0287_15"
    INDEX 01 00:22:59
  TRACK 16 AUDIO
    TITLE "P1Q_t_0278-0287_16"
    INDEX 01 00:25:53
  TRACK 17 AUDIO
    TITLE "P1Q_t_0278-0287_17"
    INDEX 01 00:25:73
  TRACK 18 AUDIO
    TITLE "P1Q_t_0278-0287_18"
    INDEX 01 00:31:42
  TRACK 19 AUDIO
    TITLE "P1Q_t_0278-0287_19"
    INDEX 01 00:32:12
  TRACK 20 AUDIO
    TITLE "P1Q_t_0278-0287_20"
    INDEX 01 00:33:37
  TRACK 21 AUDIO
    TITLE "P1Q_t_0278-0287_21"
    INDEX 01 00:33:59
  TRACK 22 AUDIO
    TITLE "P1Q_t_0278-0287_22"
    INDEX 01 00:36:26
  TRACK 23 AUDIO
    TITLE "P1Q_t_0278-0287_23"
    INDEX 01 00:36:45
  TRACK 24 AUDIO
    TITLE "P1Q_t_0278-0287_24"
    INDEX 01 00:41:07
  TRACK 25 AUDIO
    TITLE "P1Q_t_0278-0287_25"
    INDEX 01 00:41:54
  TRACK 26 AUDIO
    TITLE "P1Q_t_0278-0287_26"
    INDEX 01 00:42:69
  TRACK 27 AUDIO
    TITLE "P1Q_t_0278-0287_27"
    INDEX 01 00:43:14
  TRACK 28 AUDIO
    TITLE "P1Q_t_0278-0287_28"
    INDEX 01 00:46:36
  TRACK 29 AUDIO
    TITLE "P1Q_t_0278-0287_29"
    INDEX 01 00:46:55
  TRACK 30 AUDIO
    TITLE "P1Q_t_0278-0287_30"
    INDEX 01 00:52:74
  TRACK 31 AUDIO
    TITLE "P1Q_t_0278-0287_31"
    INDEX 01 00:53:46
  TRACK 32 AUDIO
    TITLE "P1Q_t_0278-0287_32"
    INDEX 01 00:54:71
  TRACK 33 AUDIO
    TITLE "P1Q_t_0278-0287_33"
    INDEX 01 00:55:19
  TRACK 34 AUDIO
    TITLE "P1Q_t_0278-0287_34"
    INDEX 01 00:56:54
  TRACK 35 AUDIO
    TITLE "P1Q_t_0278-0287_35"
    INDEX 01 00:56:73
  TRACK 36 AUDIO
    TITLE "P1Q_t_0278-0287_36"
    INDEX 01 01:00:12
  TRACK 37 AUDIO
    TITLE "P1Q_t_0278-0287_37"
    INDEX 01 01:00:60
  TRACK 38 AUDIO
    TITLE "P1Q_t_0278-0287_38"
    INDEX 01 01:01:67
  TRACK 39 AUDIO
    TITLE "P1Q_t_0278-0287_39"
    INDEX 01 01:02:15
  TRACK 40 AUDIO
    TITLE "P1Q_t_0278-0287_40"
    INDEX 01 01:05:12
  TRACK 41 AUDIO
    TITLE "P1Q_t_0278-0287_41"
    INDEX 01 01:05:31
  TRACK 42 AUDIO
    TITLE "P1Q_t_0278-0287_42"
    INDEX 01 01:10:19
  TRACK 43 AUDIO
    TITLE "P1Q_t_0278-0287_43"
    INDEX 01 01:10:64
  TRACK 44 AUDIO
    TITLE "P1Q_t_0278-0287_44"
    INDEX 01 01:12:24
  TRACK 45 AUDIO
    TITLE "P1Q_t_0278-0287_45"
    INDEX 01 01:12:43
  TRACK 46 AUDIO
    TITLE "P1Q_t_0278-0287_46"
    INDEX 01 01:14:05
  TRACK 47 AUDIO
    TITLE "P1Q_t_0278-0287_47"
    INDEX 01 01:14:24
  TRACK 48 AUDIO
    TITLE "P1Q_t_0278-0287_48"
    INDEX 01 01:19:10
  TRACK 49 AUDIO
    TITLE "P1Q_t_0278-0287_49"
    INDEX 01 01:19:57
  TRACK 50 AUDIO
    TITLE "P1Q_t_0278-0287_50"
    INDEX 01 01:21:13
  TRACK 51 AUDIO
    TITLE "P1Q_t_0278-0287_51"
    INDEX 01 01:21:34
  TRACK 52 AUDIO
    TITLE "P1Q_t_0278-0287_52"
    INDEX 01 01:22:65
  TRACK 53 AUDIO
    TITLE "P1Q_t_0278-0287_53"
    INDEX 01 01:23:12
  TRACK 54 AUDIO
    TITLE "P1Q_t_0278-0287_54"
    INDEX 01 01:26:67
  TRACK 55 AUDIO
    TITLE "P1Q_t_0278-0287_55"
    INDEX 01 01:27:39
  TRACK 56 AUDIO
    TITLE "P1Q_t_0278-0287_56"
    INDEX 01 01:28:68
  TRACK 57 AUDIO
    TITLE "P1Q_t_0278-0287_57"
    INDEX 01 01:29:14
  TRACK 58 AUDIO
    TITLE "P1Q_t_0278-0287_58"
    INDEX 01 01:30:35
  TRACK 59 AUDIO
    TITLE "P1Q_t_0278-0287_59"
    INDEX 01 01:30:55
  TRACK 60 AUDIO
    TITLE "P1Q_t_0278-0287_60"
    INDEX 01 01:35:17
